<svg width="48" height="48" viewBox="0 0 48 48" fill="none" xmlns="http://www.w3.org/2000/svg">
<path d="M23.9985 4.02878C18.8685 4.07838 15.9985 7.88658 15.9985 12.0288C15.9985 15.7946 18.5687 18.8658 21.9985 19.7788V14.0288C22.0009 12.9242 22.8939 12.0264 23.9985 12.0288C25.1031 12.0312 26.0009 12.9242 25.9985 14.0288V17.4664C27.1721 15.3232 30.1407 12.9102 33.9985 12.2164C32.9557 7.24939 28.6617 3.98358 23.9985 4.02878ZM12.1861 14.0288C7.21911 15.0716 3.95331 19.3658 3.99851 24.0288C4.04811 29.1588 7.85631 32.0288 11.9985 32.0288C15.7643 32.0288 18.8355 29.4588 19.7485 26.0288H13.9985C12.8939 26.0268 11.9961 25.1328 11.9985 24.0288C12.0009 22.9248 12.8939 22.0268 13.9985 22.0288H17.4361C15.2929 20.8548 12.8799 17.8864 12.1861 14.0288ZM35.9985 16.0288C32.2327 16.0288 29.1615 18.599 28.2485 22.0288H33.9985C35.1031 22.0308 36.0009 22.9248 35.9985 24.0288C35.9961 25.1328 35.1031 26.0308 33.9985 26.0288H30.5609C32.7041 27.2028 35.1171 30.1708 35.8109 34.0288C40.7779 32.9868 44.0437 28.6928 43.9985 24.0288C43.9489 18.8988 40.1407 16.0288 35.9985 16.0288ZM23.9985 22.0288C22.8939 22.0288 21.9985 22.9248 21.9985 24.0288C21.9985 25.1328 22.8939 26.0288 23.9985 26.0288C25.1031 26.0288 25.9985 25.1328 25.9985 24.0288C25.9985 22.9248 25.1031 22.0288 23.9985 22.0288ZM25.9985 28.2788V34.0288C25.9961 35.1328 25.1031 36.0308 23.9985 36.0288C22.8939 36.0268 21.9961 35.1328 21.9985 34.0288V30.5908C20.8249 32.7348 17.8563 35.1468 13.9985 35.8408C15.0413 40.8088 19.3353 44.0748 23.9985 44.0288C29.1285 43.9788 31.9985 40.1708 31.9985 36.0288C31.9985 32.2628 29.4283 29.1928 25.9985 28.2788Z" fill="#DF3160"/>
</svg>
