<svg width="48" height="48" viewBox="0 0 48 48" fill="none" xmlns="http://www.w3.org/2000/svg">
<path d="M21.9976 5.98148C17.5796 5.98148 13.9976 9.56348 13.9976 13.9815H11.9976C7.83756 13.9815 4.50758 17.1735 4.12158 21.2315C5.13358 21.5775 18.6855 26.1075 18.6855 26.1055C21.5555 27.0635 26.4396 27.0635 29.3096 26.1055C29.3096 26.1055 39.6735 22.6455 43.9355 21.2315C43.5655 17.1575 40.1676 13.9815 35.9976 13.9815H33.9976C33.9976 9.56348 30.4156 5.98148 25.9976 5.98148H21.9976ZM21.9976 9.98148H25.9976C28.2076 9.98148 29.9976 11.7715 29.9976 13.9815H17.9976C17.9976 11.7715 19.7876 9.98148 21.9976 9.98148ZM3.99756 25.4195V33.9815C3.99756 38.3995 7.57956 41.9815 11.9976 41.9815H35.9976C40.4156 41.9815 43.9976 38.3995 43.9976 33.9815V25.4195L30.5596 29.9195C26.8696 31.1495 21.1255 31.1495 17.4355 29.9195L3.99756 25.4195Z" fill="#6A29DA"/>
</svg>
